<?xml version="1.0" encoding="UTF-8" standalone="no"?>
<svg
   width="922"
   height="1090"
   viewBox="0 0 922 1090"
   fill="none"
   version="1.1"
   id="svg146"
   sodipodi:docname="BowlSynthlax.svg"
   inkscape:export-filename="BowlSynthlax.png"
   inkscape:export-xdpi="3.1889608"
   inkscape:export-ydpi="3.1889608"
   inkscape:version="1.2.2 (732a01da63, 2022-12-09)"
   xmlns:inkscape="http://www.inkscape.org/namespaces/inkscape"
   xmlns:sodipodi="http://sodipodi.sourceforge.net/DTD/sodipodi-0.dtd"
   xmlns="http://www.w3.org/2000/svg"
   xmlns:svg="http://www.w3.org/2000/svg">
  <sodipodi:namedview
     id="namedview148"
     pagecolor="#ffffff"
     bordercolor="#000000"
     borderopacity="0.25"
     inkscape:showpageshadow="2"
     inkscape:pageopacity="0.0"
     inkscape:pagecheckerboard="0"
     inkscape:deskcolor="#d1d1d1"
     showgrid="false"
     inkscape:zoom="0.73577982"
     inkscape:cx="336.37781"
     inkscape:cy="545"
     inkscape:window-width="1920"
     inkscape:window-height="974"
     inkscape:window-x="-11"
     inkscape:window-y="-11"
     inkscape:window-maximized="1"
     inkscape:current-layer="svg146" />
  <path
     d="M890 811.713H895L895 414.031L895 414.013V414H890C885 414 885 413.995 885 413.991V414L884.999 414.046C884.998 414.107 884.996 414.211 884.99 414.358C884.979 414.652 884.957 415.117 884.91 415.741C884.815 416.989 884.622 418.874 884.227 421.304C883.437 426.165 881.842 433.206 878.621 441.704C872.19 458.673 859.236 481.559 833.073 504.569C780.724 550.608 674.876 597.647 461 597.647C247.124 597.647 141.276 550.608 88.927 504.569C62.7636 481.559 49.8102 458.673 43.3786 441.704C40.1577 433.206 38.5628 426.165 37.7732 421.304C37.3784 418.874 37.1851 416.989 37.0904 415.741C37.0431 415.117 37.0205 414.652 37.0097 414.358C37.0043 414.211 37.0019 414.107 37.0008 414.047C37.0003 414.016 37.0001 413.997 37 413.99C37 413.987 37 413.986 37 413.986L37 413.986L37 413.991C37 413.995 37 414 32.0075 414C32.005 414 32.0025 414 32 414C31.9981 414 31.9961 414 31.9942 414H27V811.713H32C27 811.713 27 811.717 27 811.722L27 811.734L27.0002 811.77C27.0003 811.799 27.0006 811.839 27.0011 811.889C27.0021 811.988 27.004 812.129 27.0077 812.31C27.0152 812.672 27.0297 813.194 27.058 813.868C27.1147 815.215 27.2268 817.17 27.4483 819.664C27.8914 824.653 28.7727 831.806 30.5266 840.583C34.0335 858.133 41.0361 882.212 55.0248 908.467C83.0695 961.102 138.983 1022.07 250.006 1056.82C305.509 1074.2 374.711 1085 461 1085C676.604 1085 785.474 1017.53 840.28 948.979C867.607 914.8 881.284 880.603 888.128 854.921C891.551 842.079 893.268 831.356 894.13 823.809C894.561 820.034 894.778 817.052 894.888 814.992C894.943 813.963 894.971 813.164 894.985 812.612C894.992 812.336 894.996 812.122 894.998 811.971C894.999 811.896 894.999 811.837 895 811.794L895 811.741L895 811.724C895 811.718 895 811.713 890 811.713Z"
     fill="url(#paint0_linear_325_529)"
     id="path2" />
  <path
     d="M890 811.713H895L895 414.031L895 414.013V414H890C885 414 885 413.995 885 413.991V414L884.999 414.046C884.998 414.107 884.996 414.211 884.99 414.358C884.979 414.652 884.957 415.117 884.91 415.741C884.815 416.989 884.622 418.874 884.227 421.304C883.437 426.165 881.842 433.206 878.621 441.704C872.19 458.673 859.236 481.559 833.073 504.569C780.724 550.608 674.876 597.647 461 597.647C247.124 597.647 141.276 550.608 88.927 504.569C62.7636 481.559 49.8102 458.673 43.3786 441.704C40.1577 433.206 38.5628 426.165 37.7732 421.304C37.3784 418.874 37.1851 416.989 37.0904 415.741C37.0431 415.117 37.0205 414.652 37.0097 414.358C37.0043 414.211 37.0019 414.107 37.0008 414.047C37.0003 414.016 37.0001 413.997 37 413.99C37 413.987 37 413.986 37 413.986L37 413.986L37 413.991C37 413.995 37 414 32.0075 414C32.005 414 32.0025 414 32 414C31.9981 414 31.9961 414 31.9942 414H27V811.713H32C27 811.713 27 811.717 27 811.722L27 811.734L27.0002 811.77C27.0003 811.799 27.0006 811.839 27.0011 811.889C27.0021 811.988 27.004 812.129 27.0077 812.31C27.0152 812.672 27.0297 813.194 27.058 813.868C27.1147 815.215 27.2268 817.17 27.4483 819.664C27.8914 824.653 28.7727 831.806 30.5266 840.583C34.0335 858.133 41.0361 882.212 55.0248 908.467C83.0695 961.102 138.983 1022.07 250.006 1056.82C305.509 1074.2 374.711 1085 461 1085C676.604 1085 785.474 1017.53 840.28 948.979C867.607 914.8 881.284 880.603 888.128 854.921C891.551 842.079 893.268 831.356 894.13 823.809C894.561 820.034 894.778 817.052 894.888 814.992C894.943 813.963 894.971 813.164 894.985 812.612C894.992 812.336 894.996 812.122 894.998 811.971C894.999 811.896 894.999 811.837 895 811.794L895 811.741L895 811.724C895 811.718 895 811.713 890 811.713Z"
     fill="#D9D9D9"
     id="path4" />
  <path
     d="M890 811.713H895L895 414.031L895 414.013V414H890C885 414 885 413.995 885 413.991V414L884.999 414.046C884.998 414.107 884.996 414.211 884.99 414.358C884.979 414.652 884.957 415.117 884.91 415.741C884.815 416.989 884.622 418.874 884.227 421.304C883.437 426.165 881.842 433.206 878.621 441.704C872.19 458.673 859.236 481.559 833.073 504.569C780.724 550.608 674.876 597.647 461 597.647C247.124 597.647 141.276 550.608 88.927 504.569C62.7636 481.559 49.8102 458.673 43.3786 441.704C40.1577 433.206 38.5628 426.165 37.7732 421.304C37.3784 418.874 37.1851 416.989 37.0904 415.741C37.0431 415.117 37.0205 414.652 37.0097 414.358C37.0043 414.211 37.0019 414.107 37.0008 414.047C37.0003 414.016 37.0001 413.997 37 413.99C37 413.987 37 413.986 37 413.986L37 413.986L37 413.991C37 413.995 37 414 32.0075 414C32.005 414 32.0025 414 32 414C31.9981 414 31.9961 414 31.9942 414H27V811.713H32C27 811.713 27 811.717 27 811.722L27 811.734L27.0002 811.77C27.0003 811.799 27.0006 811.839 27.0011 811.889C27.0021 811.988 27.004 812.129 27.0077 812.31C27.0152 812.672 27.0297 813.194 27.058 813.868C27.1147 815.215 27.2268 817.17 27.4483 819.664C27.8914 824.653 28.7727 831.806 30.5266 840.583C34.0335 858.133 41.0361 882.212 55.0248 908.467C83.0695 961.102 138.983 1022.07 250.006 1056.82C305.509 1074.2 374.711 1085 461 1085C676.604 1085 785.474 1017.53 840.28 948.979C867.607 914.8 881.284 880.603 888.128 854.921C891.551 842.079 893.268 831.356 894.13 823.809C894.561 820.034 894.778 817.052 894.888 814.992C894.943 813.963 894.971 813.164 894.985 812.612C894.992 812.336 894.996 812.122 894.998 811.971C894.999 811.896 894.999 811.837 895 811.794L895 811.741L895 811.724C895 811.718 895 811.713 890 811.713Z"
     stroke="black"
     stroke-width="10"
     id="path6" />
  <path
     d="M460.481 630C950.668 630 921.676 413.447 921.676 413.447C921.676 413.447 950.668 208 460.481 208C-29.7065 208 0.358952 413.447 0.358952 413.447C0.358952 413.447 -29.7064 630 460.481 630Z"
     fill="black"
     id="path8" />
  <path
     d="M460.503 610C929.424 610 901.69 408.329 901.69 408.329C901.69 408.329 929.424 217 460.503 217C-8.41772 217 20.3434 408.329 20.3434 408.329C20.3434 408.329 -8.41765 610 460.503 610Z"
     fill="#D9D9D9"
     id="path10" />
  <path
     d="M460.536 586C898.621 586 872.71 406.395 872.71 406.395C872.71 406.395 898.621 236 460.536 236C22.451 236 49.3208 406.395 49.3208 406.395C49.3208 406.395 22.4511 586 460.536 586Z"
     fill="#982C4F"
     id="path12" />
  <path
     d="M460.552 578C883.75 578 858.72 399.166 858.72 399.166C858.72 399.166 883.75 248 460.552 248C37.3532 248 63.3099 399.166 63.3099 399.166C63.3099 399.166 37.3532 578 460.552 578Z"
     fill="#832A47"
     id="path14" />
  <path
     d="M460.583 566C854.009 566 830.74 400.172 830.74 400.172C830.74 400.172 854.009 260 460.583 260C67.1575 260 91.2881 400.172 91.2881 400.172C91.2881 400.172 67.1575 566 460.583 566Z"
     fill="#AC2F58"
     id="path16" />
  <path
     d="M460.638 547C801.962 547 781.774 401.765 781.774 401.765C781.774 401.765 801.962 279 460.638 279C119.315 279 140.25 401.765 140.25 401.765C140.25 401.765 119.315 547 460.638 547Z"
     fill="#BD325F"
     id="path18" />
  <ellipse
     cx="26.7051"
     cy="25"
     rx="26.7051"
     ry="25"
     transform="matrix(0.866025 0.5 -0.866025 0.5 659.301 272.816)"
     fill="#AC2F58"
     id="ellipse20" />
  <path
     fill-rule="evenodd"
     clip-rule="evenodd"
     d="M545.747 399.96L665.023 468.824L506.76 457.464L439.848 362.715L545.747 399.96Z"
     fill="#AC2F58"
     id="path22" />
  <path
     fill-rule="evenodd"
     clip-rule="evenodd"
     d="M506.76 457.464L429.253 536.082L400.033 441.528L439.848 362.715L506.76 457.464Z"
     fill="#AC2F58"
     id="path24" />
  <path
     d="M352.755 288.536L439.848 362.715L462.819 352.082L352.755 288.536Z"
     fill="#AC2F58"
     id="path26" />
  <path
     d="M352.755 288.536L376.671 377.787L439.848 362.715L352.755 288.536Z"
     fill="#AC2F58"
     id="path28" />
  <path
     d="M506.76 457.464L429.253 536.082L506.76 464.474L506.76 457.464Z"
     fill="#AC2F58"
     id="path30" />
  <path
     d="M665.023 468.824L506.76 457.464L506.76 464.474L665.023 468.824Z"
     fill="#AC2F58"
     id="path32" />
  <path
     fill-rule="evenodd"
     clip-rule="evenodd"
     d="M617.745 315.832L545.747 399.96L472.648 354.621L617.745 315.832Z"
     fill="#AC2F58"
     id="path34" />
  <path
     fill-rule="evenodd"
     clip-rule="evenodd"
     d="M400.033 441.528L236.261 424.658L379.562 382.952L400.033 441.528Z"
     fill="#AC2F58"
     id="path36" />
  <path
     d="M439.848 362.715L545.747 399.96L472.648 354.621L439.848 362.715Z"
     fill="#AC2F58"
     id="path38" />
  <path
     d="M400.033 441.528L439.848 362.715L379.562 382.952L400.033 441.528Z"
     fill="#AC2F58"
     id="path40" />
  <path
     fill-rule="evenodd"
     clip-rule="evenodd"
     d="M617.745 315.832L472.648 354.621L462.819 352.082L617.745 315.832Z"
     fill="#AC2F58"
     id="path42" />
  <path
     fill-rule="evenodd"
     clip-rule="evenodd"
     d="M236.261 424.658L376.671 377.787L379.562 382.952L236.261 424.658Z"
     fill="#AC2F58"
     id="path44" />
  <path
     d="M439.848 362.715L376.671 377.787L379.562 382.952L439.848 362.715Z"
     fill="#AC2F58"
     id="path46" />
  <path
     d="M439.848 362.715L472.648 354.621L462.819 352.082L439.848 362.715Z"
     fill="#AC2F58"
     id="path48" />
  <g
     opacity="0.75"
     id="g70">
    <path
       d="M538.502 394.93L547.283 396.289L549.636 401.358L543.208 405.07L534.427 403.711L532.074 398.641L538.502 394.93Z"
       fill="#FFDBD3"
       stroke="#832A47"
       id="path50" />
    <path
       d="M405.502 431.93L414.283 433.289L416.636 438.358L410.208 442.07L401.427 440.711L399.074 435.641L405.502 431.93Z"
       fill="#FFDBD3"
       stroke="#832A47"
       id="path52" />
    <path
       d="M391.502 375.93L400.283 377.289L402.636 382.358L396.208 386.07L387.427 384.711L385.074 379.641L391.502 375.93Z"
       fill="#FFDBD3"
       stroke="#832A47"
       id="path54" />
    <path
       d="M591.502 322.93L600.283 324.289L602.636 329.358L596.208 333.07L587.427 331.711L585.074 326.641L591.502 322.93Z"
       fill="#FFDBD3"
       stroke="#832A47"
       id="path56" />
    <path
       d="M460.502 354.93L469.283 356.289L471.636 361.358L465.208 365.07L456.427 363.711L454.074 358.641L460.502 354.93Z"
       fill="#FFDBD3"
       stroke="#832A47"
       id="path58" />
    <path
       d="M631.502 452.93L640.283 454.289L642.636 459.358L636.208 463.07L627.427 461.711L625.074 456.641L631.502 452.93Z"
       fill="#FFDBD3"
       stroke="#832A47"
       id="path60" />
    <path
       d="M499.502 450.93L508.283 452.289L510.636 457.358L504.208 461.07L495.427 459.711L493.074 454.641L499.502 450.93Z"
       fill="#FFDBD3"
       stroke="#832A47"
       id="path62" />
    <path
       d="M370.502 300.93L379.283 302.289L381.636 307.358L375.208 311.07L366.427 309.711L364.074 304.641L370.502 300.93Z"
       fill="#FFDBD3"
       stroke="#832A47"
       id="path64" />
    <path
       d="M433.502 508.93L442.283 510.289L444.636 515.358L438.208 519.07L429.427 517.711L427.074 512.641L433.502 508.93Z"
       fill="#FFDBD3"
       stroke="#832A47"
       id="path66" />
    <path
       d="M274.502 415.93L283.283 417.289L285.636 422.358L279.208 426.07L270.427 424.711L268.074 419.641L274.502 415.93Z"
       fill="#FFDBD3"
       stroke="#832A47"
       id="path68" />
  </g>
  <g
     filter="url(#filter0_d_325_529)"
     id="g102">
    <path
       fill-rule="evenodd"
       clip-rule="evenodd"
       d="M536.214 399.709L639.363 459.262L502.499 449.438L444.633 367.5L536.214 399.709Z"
       fill="#EB8B78"
       id="path72" />
    <path
       fill-rule="evenodd"
       clip-rule="evenodd"
       d="M502.499 449.438L435.471 517.426L410.202 435.656L444.633 367.5L502.499 449.438Z"
       fill="#FFDBD3"
       id="path74" />
    <path
       d="M369.316 303.35L444.633 367.5L464.499 358.304L369.316 303.35Z"
       fill="#D1604A"
       id="path76" />
    <path
       d="M369.316 303.35L389.999 380.533L444.633 367.5L369.316 303.35Z"
       fill="#EB8B78"
       id="path78" />
    <path
       d="M502.499 449.438L435.471 517.426L502.499 455.5V449.438Z"
       fill="#A64D3B"
       id="path80" />
    <path
       d="M639.363 459.262L502.499 449.438V455.5L639.363 459.262Z"
       fill="#EB8B78"
       id="path82" />
    <path
       fill-rule="evenodd"
       clip-rule="evenodd"
       d="M598.477 326.956L536.214 399.709L472.999 360.5L598.477 326.956Z"
       fill="#A64D3B"
       id="path84" />
    <path
       fill-rule="evenodd"
       clip-rule="evenodd"
       d="M410.202 435.656L268.573 421.067L392.499 385L410.202 435.656Z"
       fill="#A64D3B"
       id="path86" />
    <path
       d="M444.633 367.5L536.214 399.709L472.999 360.5L444.633 367.5Z"
       fill="#EB8B78"
       id="path88" />
    <path
       d="M410.202 435.656L444.633 367.5L392.499 385L410.202 435.656Z"
       fill="#EB8B78"
       id="path90" />
    <path
       fill-rule="evenodd"
       clip-rule="evenodd"
       d="M598.477 326.956L472.999 360.5L464.499 358.304L598.477 326.956Z"
       fill="#A64D3B"
       id="path92" />
    <path
       fill-rule="evenodd"
       clip-rule="evenodd"
       d="M268.573 421.067L389.999 380.533L392.499 385L268.573 421.067Z"
       fill="#A64D3B"
       id="path94" />
    <path
       d="M444.633 367.5L389.999 380.533L392.499 385L444.633 367.5Z"
       fill="#D1604A"
       id="path96" />
    <path
       d="M444.633 367.5L472.999 360.5L464.499 358.304L444.633 367.5Z"
       fill="#D1604A"
       id="path98" />
    <path
       d="M472.844 360.923L532.74 398.073L445.967 367.555L472.844 360.923ZM471.471 360.492L448.509 366.159L464.59 358.715L471.471 360.492ZM463.582 358.275L444.768 366.984L373.435 306.228L463.582 358.275ZM466.06 358.32L575.357 332.747L472.994 360.111L466.06 358.32ZM536.058 399.093L474.022 360.616L597.159 327.698L536.058 399.093ZM535.833 399.989L637.669 458.784L502.93 449.112L445.902 368.36L535.833 399.989ZM503.111 449.838L623.328 458.467L503.111 455.163V449.838ZM501.886 450.774V455.398L450.75 502.643L501.886 450.774ZM501.819 449.412L435.776 516.401L410.83 435.676L444.729 368.572L501.819 449.412ZM443.616 368.25L410.31 434.179L393.186 385.178L443.616 368.25ZM436.483 369.827L392.848 384.474L390.755 380.735L436.483 369.827ZM443.704 367.339L390.485 380.035L370.338 304.85L443.704 367.339ZM409.424 435.217L270.489 420.906L392.057 385.524L409.424 435.217ZM389.649 381.059L391.755 384.82L287.376 415.199L389.649 381.059Z"
       stroke="#FFDBD3"
       stroke-linejoin="round"
       id="path100" />
  </g>
  <ellipse
     cx="26.4841"
     cy="24.2259"
     rx="26.4841"
     ry="24.2259"
     transform="matrix(0.866025 0.5 -0.866025 0.5 724.92 294.911)"
     fill="#AC2F58"
     id="ellipse104" />
  <path
     d="M738.36 9.81686C738.36 9.81686 737.648 19.3876 754.452 28.3522C771.257 37.3168 786 28.3522 786 28.3522C786 28.3522 789.079 17.8167 768.754 9.81687C748.429 1.81705 738.36 9.81686 738.36 9.81686Z"
     fill="#632717"
     id="path106" />
  <path
     fill-rule="evenodd"
     clip-rule="evenodd"
     d="M754.452 28.3522C737.648 19.3876 738.36 9.81686 738.36 9.81686L636.759 287.833C636.759 287.833 630.257 304.317 652.257 311.317L754.452 28.3522Z"
     fill="#7F301C"
     id="path108" />
  <path
     d="M683.892 306.47C686.429 304.581 688.026 301.787 689.093 298.81L786 28.3522C786 28.3522 771.257 37.3168 754.452 28.3522L652.257 311.317C667.525 316.175 678.566 310.436 683.892 306.47Z"
     fill="#732D1B"
     id="path110" />
  <path
     d="M849.16 48.0753C849.16 48.0753 846.85 57.3906 861.911 69.0493C876.972 80.708 893.011 74.3459 893.011 74.3459C893.011 74.3459 897.815 64.4769 879.122 53.1782C860.428 41.8795 849.16 48.0753 849.16 48.0753Z"
     fill="#632717"
     id="path112" />
  <path
     fill-rule="evenodd"
     clip-rule="evenodd"
     d="M861.911 69.0493C846.85 57.3906 849.16 48.0753 849.16 48.0753L702.324 305.087C702.324 305.087 693.146 320.245 713.659 330.839L861.911 69.0493Z"
     fill="#7F301C"
     id="path114" />
  <path
     d="M745.659 331.372C748.477 329.936 750.52 327.45 752.072 324.694L893.011 74.3459C893.011 74.3459 876.972 80.708 861.911 69.0493L713.659 330.839C727.895 338.192 739.742 334.388 745.659 331.372Z"
     fill="#732D1B"
     id="path116" />
  <path
     fill-rule="evenodd"
     clip-rule="evenodd"
     d="M551.16 788.626L211.986 691.182L216.232 790.067C216.232 790.067 253.542 953.243 389.577 951.655C525.613 950.066 556.568 886.777 556.568 886.777L551.16 788.626Z"
     fill="black"
     stroke="black"
     stroke-width="2.12841"
     stroke-miterlimit="1.5"
     stroke-linecap="round"
     stroke-linejoin="round"
     id="path118" />
  <path
     fill-rule="evenodd"
     clip-rule="evenodd"
     d="M599.5 784.016L609.615 879.264C609.615 879.264 644.444 924.874 741.128 913.296C837.812 901.718 842.029 787.924 842.029 787.924L842.029 650.271L599.5 784.016Z"
     fill="black"
     stroke="black"
     stroke-width="2.12841"
     stroke-miterlimit="1.5"
     stroke-linecap="round"
     stroke-linejoin="round"
     id="path120" />
  <defs
     id="defs144">
    <filter
       id="filter0_d_325_529"
       x="264.573"
       y="303.35"
       width="378.79"
       height="222.076"
       filterUnits="userSpaceOnUse"
       color-interpolation-filters="sRGB">
      <feFlood
         flood-opacity="0"
         result="BackgroundImageFix"
         id="feFlood122" />
      <feColorMatrix
         in="SourceAlpha"
         type="matrix"
         values="0 0 0 0 0 0 0 0 0 0 0 0 0 0 0 0 0 0 127 0"
         result="hardAlpha"
         id="feColorMatrix124" />
      <feOffset
         dy="4"
         id="feOffset126" />
      <feGaussianBlur
         stdDeviation="2"
         id="feGaussianBlur128" />
      <feComposite
         in2="hardAlpha"
         operator="out"
         id="feComposite130" />
      <feColorMatrix
         type="matrix"
         values="0 0 0 0 0 0 0 0 0 0 0 0 0 0 0 0 0 0 0.25 0"
         id="feColorMatrix132" />
      <feBlend
         mode="normal"
         in2="BackgroundImageFix"
         result="effect1_dropShadow_325_529"
         id="feBlend134" />
      <feBlend
         mode="normal"
         in="SourceGraphic"
         in2="effect1_dropShadow_325_529"
         result="shape"
         id="feBlend136" />
    </filter>
    <linearGradient
       id="paint0_linear_325_529"
       x1="375"
       y1="747"
       x2="32"
       y2="747"
       gradientUnits="userSpaceOnUse">
      <stop
         stop-color="#D9D9D9"
         id="stop139" />
      <stop
         offset="1"
         stop-color="#626262"
         id="stop141" />
    </linearGradient>
  </defs>
</svg>
